<svg width="72" height="20" viewBox="0 0 72 20" fill="none" xmlns="http://www.w3.org/2000/svg">
<path d="M0.433663 5.22H3.23366V6.08C3.91366 5.36 4.85366 4.92 6.13366 4.92C8.73366 4.92 10.6137 7.2 10.6137 10.12C10.6137 13 8.73366 15.32 6.13366 15.32C4.85366 15.32 3.91366 14.88 3.23366 14.16V19.5H0.433663V5.22ZM3.23366 10.12C3.23366 11.56 4.15366 12.62 5.51366 12.62C6.87366 12.62 7.81366 11.56 7.81366 10.12C7.81366 8.68 6.89366 7.62 5.51366 7.62C4.15366 7.62 3.23366 8.66 3.23366 10.12ZM11.2738 10.14C11.2738 7.22 13.3338 4.92 16.3938 4.92C19.4338 4.92 21.4938 7.22 21.4938 10.14C21.4938 13.06 19.4338 15.3 16.3938 15.3C13.3338 15.3 11.2738 13.06 11.2738 10.14ZM14.0738 10.14C14.0738 11.56 15.0338 12.62 16.3738 12.62C17.7138 12.62 18.6938 11.56 18.6938 10.14C18.6938 8.7 17.7138 7.62 16.3738 7.62C15.0338 7.62 14.0738 8.7 14.0738 10.14ZM24.4052 11.24C24.6652 12.34 25.3452 12.94 26.3852 12.94C27.3852 12.94 27.8452 12.54 27.8452 12.1C27.8452 11.74 27.5852 11.36 26.1852 11.18C23.8452 10.96 22.5052 9.8 22.5052 7.96C22.5052 6.18 24.0852 4.92 26.2252 4.92C27.9852 4.92 29.4852 6 30.0052 7.72L27.7852 8.46C27.5052 7.7 27.0252 7.28 26.2252 7.28C25.6052 7.28 25.1652 7.5 25.1652 7.9C25.1652 8.22 25.3252 8.5 26.4652 8.62C29.0852 8.86 30.4852 9.98 30.4852 11.88C30.4852 13.9 28.7652 15.3 26.3852 15.3C24.1652 15.3 22.4052 13.92 21.9452 11.76L24.4052 11.24ZM30.4673 5.22H31.9673V2.48H34.7673V5.22H39.2873V7.62H34.7673V11.62C34.7673 12.38 35.2273 12.8 35.9073 12.8C36.6073 12.8 37.0673 12.3 37.0673 11.36C37.0673 11.28 37.0473 11.18 37.0473 11.08L39.7073 11.36C39.8273 13.8 38.2073 15.3 36.0473 15.3C33.4673 15.3 31.9673 13.84 31.9673 11.5V7.62H30.4673V5.22ZM40.5068 2.26C40.5068 1.32 41.2668 0.559999 42.1868 0.559999C43.1068 0.559999 43.8868 1.32 43.8868 2.26C43.8868 3.18 43.1068 3.94 42.1868 3.94C41.2668 3.94 40.5068 3.18 40.5068 2.26ZM40.7868 5.22H43.5868V15H40.7868V5.22ZM45.0938 0.999999H47.8938V15H45.0938V0.999999ZM49.1404 2.26C49.1404 1.32 49.9004 0.559999 50.8204 0.559999C51.7404 0.559999 52.5204 1.32 52.5204 2.26C52.5204 3.18 51.7404 3.94 50.8204 3.94C49.9004 3.94 49.1404 3.18 49.1404 2.26ZM49.4204 5.22H52.2204V15H49.4204V5.22ZM53.3474 12.6L57.8274 7.62H53.3474V5.22H61.2874V7.62L56.7874 12.6H61.2874V15H53.3474V12.6ZM61.7941 10.14C61.7941 7.2 63.7341 4.94 66.6941 4.94C69.4141 4.94 71.1541 6.92 71.1541 9.74V10.82H64.3541C64.6341 12.16 65.5541 12.92 66.8341 12.92C67.8741 12.92 68.6341 12.3 68.8541 11.3L71.3541 11.78C71.0141 13.88 69.0941 15.3 66.7941 15.3C63.7741 15.3 61.7941 13.08 61.7941 10.14ZM68.7341 8.9C68.6941 8.02 67.9141 7.24 66.6941 7.24C65.5941 7.24 64.7541 7.86 64.4141 8.9H68.7341Z"/>
</svg>
