<svg width="20" height="18" viewBox="0 0 20 18" fill="none" xmlns="http://www.w3.org/2000/svg">
<path fill-rule="evenodd" clip-rule="evenodd" d="M19.1124 6.86667L17.2183 7.96C17.3169 8.64983 17.3169 9.35018 17.2183 10.04L19.1124 11.1342L16.4041 15.825L14.5091 14.7308C13.962 15.1624 13.3558 15.5131 12.7091 15.7725V17.9583H7.29245V15.7725C6.64514 15.5133 6.03839 15.1625 5.49078 14.7308L3.59578 15.825L0.887451 11.1333L2.78245 10.04C2.68382 9.35018 2.68382 8.64983 2.78245 7.96L0.887451 6.86667L3.59578 2.175L5.49162 3.27C6.03897 2.83841 6.64543 2.48762 7.29245 2.22833V0.0416679H12.7091V2.22833C13.3616 2.48917 13.9675 2.84167 14.51 3.27L16.405 2.17583L19.1124 6.86667ZM9.99995 11.9167C10.383 11.9167 10.7622 11.8412 11.1161 11.6946C11.47 11.5481 11.7915 11.3332 12.0623 11.0624C12.3332 10.7916 12.548 10.47 12.6946 10.1162C12.8412 9.76229 12.9166 9.38302 12.9166 9C12.9166 8.61698 12.8412 8.23771 12.6946 7.88384C12.548 7.52997 12.3332 7.20844 12.0623 6.93761C11.7915 6.66677 11.47 6.45193 11.1161 6.30535C10.7622 6.15878 10.383 6.08333 9.99995 6.08333C9.2264 6.08333 8.48454 6.39063 7.93756 6.93761C7.39058 7.48459 7.08328 8.22645 7.08328 9C7.08328 9.77355 7.39058 10.5154 7.93756 11.0624C8.48454 11.6094 9.2264 11.9167 9.99995 11.9167Z"/>
</svg>
