<svg width="18" height="15" viewBox="0 0 18 15" fill="none" xmlns="http://www.w3.org/2000/svg">
<g clip-path="url(#clip0_263_2546)">
<path d="M11.0145 0H7.41294L5.92939 2.45614L4.44583 4.91228L2.96228 7.36842L0 12.2807L2.11798 14.7368H5.71952L7.20307 12.2807L9.32105 14.7368H12.9226L17.3708 7.36842L11.0145 0ZM12.0662 9.57895L10.5827 12.0351L9.28246 14.1895L7.38399 11.9883L5.26601 9.53216C5.21535 9.47368 5.15022 9.44094 5.08267 9.44094C5.07544 9.44094 5.06579 9.44094 5.05855 9.44094C4.98377 9.45029 4.91382 9.49942 4.86557 9.57895L2.0818 14.1895L0.395614 12.2339L3.18421 7.61404L4.66776 5.15789L6.15132 2.70175L7.45153 0.547368L9.35 2.74854L11.468 5.20468L13.3737 7.41521L12.0686 9.57895H12.0662Z"/>
<path d="M6.56662 7.36851L8.6846 9.82465L10.1682 7.36851L8.05017 4.91237L6.56662 7.36851Z"/>
</g>
<defs>
<clipPath id="clip0_263_2546">
<rect width="17.3684" height="14.7368" fill="white"/>
</clipPath>
</defs>
</svg>
