<svg width="20" height="20" viewBox="0 0 20 20" fill="none" xmlns="http://www.w3.org/2000/svg">
<path fill-rule="evenodd" clip-rule="evenodd" d="M2.70833 9.16667C2.70833 7.45381 3.38876 5.81111 4.59994 4.59994C5.81111 3.38876 7.45381 2.70833 9.16667 2.70833C10.8795 2.70833 12.5222 3.38876 13.7334 4.59994C14.9446 5.81111 15.625 7.45381 15.625 9.16667C15.625 10.8795 14.9446 12.5222 13.7334 13.7334C12.5222 14.9446 10.8795 15.625 9.16667 15.625C7.45381 15.625 5.81111 14.9446 4.59994 13.7334C3.38876 12.5222 2.70833 10.8795 2.70833 9.16667ZM9.16667 0.625C4.45 0.625 0.625 4.45 0.625 9.16667C0.625 13.8833 4.45 17.7083 9.16667 17.7083C11.15 17.7083 12.975 17.0325 14.425 15.8983L17.5967 19.07L19.07 17.5967L15.8983 14.425C17.0739 12.9246 17.7113 11.0728 17.7083 9.16667C17.7083 4.45 13.8842 0.625 9.16667 0.625Z"/>
</svg>
