<svg width="18" height="19" viewBox="0 0 18 19"   xmlns="http://www.w3.org/2000/svg">
<path fill-rule="evenodd" clip-rule="evenodd" d="M6.50002 2.41666C6.05799 2.41666 5.63407 2.59226 5.32151 2.90482C5.00895 3.21738 4.83335 3.6413 4.83335 4.08333H3.16669C3.16664 3.40624 3.3728 2.74519 3.75772 2.18816C4.14264 1.63112 4.68806 1.20452 5.32141 0.965109C5.95476 0.725703 6.646 0.684849 7.30315 0.847985C7.96029 1.01112 8.55217 1.37051 9.00002 1.87833C9.44787 1.37051 10.0398 1.01112 10.6969 0.847985C11.354 0.684849 12.0453 0.725703 12.6786 0.965109C13.312 1.20452 13.8574 1.63112 14.2423 2.18816C14.6272 2.74519 14.8334 3.40624 14.8334 4.08333H13.1667C13.1667 3.86446 13.1236 3.64773 13.0398 3.44552C12.9561 3.24331 12.8333 3.05958 12.6785 2.90482C12.5238 2.75005 12.34 2.62729 12.1378 2.54353C11.9356 2.45977 11.7189 2.41666 11.5 2.41666C11.2811 2.41666 11.0644 2.45977 10.8622 2.54353C10.66 2.62729 10.4763 2.75005 10.3215 2.90482C10.1667 3.05958 10.044 3.24331 9.96022 3.44552C9.87646 3.64773 9.83335 3.86446 9.83335 4.08333H8.16669C8.16669 3.6413 7.99109 3.21738 7.67853 2.90482C7.36597 2.59226 6.94205 2.41666 6.50002 2.41666ZM17.3334 5.33333H0.666687V10.3333H17.3334V5.33333ZM1.50002 11.5833V18.6667H8.37502V11.5833H1.50002ZM9.62502 11.5833V18.6667H16.5V11.5833H9.62502Z"  />
</svg>
