<svg width="20" height="14" viewBox="0 0 20 14" fill="none" xmlns="http://www.w3.org/2000/svg">
<path fill-rule="evenodd" clip-rule="evenodd" d="M10.4167 4.08334C10.4167 4.96739 10.0655 5.81524 9.4404 6.44036C8.81528 7.06548 7.96743 7.41667 7.08337 7.41667C6.19932 7.41667 5.35147 7.06548 4.72635 6.44036C4.10123 5.81524 3.75004 4.96739 3.75004 4.08334C3.75004 3.19928 4.10123 2.35143 4.72635 1.72631C5.35147 1.10119 6.19932 0.750002 7.08337 0.750002C7.96743 0.750002 8.81528 1.10119 9.4404 1.72631C10.0655 2.35143 10.4167 3.19928 10.4167 4.08334ZM7.08337 9.08333C5.06151 9.08054 3.06938 9.57021 1.27921 10.51L0.833374 10.7433V13.6667H13.3334V10.7442L12.8875 10.51C11.0974 9.57021 9.10524 9.08054 7.08337 9.08333ZM11.6667 4.08334C11.6681 5.01797 11.3825 5.9305 10.8484 6.6975C11.3396 7.08612 11.9304 7.32847 12.553 7.39678C13.1756 7.4651 13.8048 7.35661 14.3686 7.08375C14.9324 6.81089 15.4079 6.3847 15.7407 5.85403C16.0734 5.32336 16.2499 4.70968 16.2499 4.08334C16.2499 3.45699 16.0734 2.84331 15.7407 2.31264C15.4079 1.78197 14.9324 1.35578 14.3686 1.08292C13.8048 0.810064 13.1756 0.701573 12.553 0.769887C11.9304 0.8382 11.3396 1.08055 10.8484 1.46917C11.3642 2.21084 11.6667 3.11084 11.6667 4.08334ZM14.5834 10.3333V13.6667H19.1667V10.7442L18.7209 10.51C17.4297 9.83157 16.0292 9.38588 14.5834 9.19334V10.3333Z"/>
</svg>
