<svg width="20" height="20" viewBox="0 0 20 20" fill="none" xmlns="http://www.w3.org/2000/svg">
<path fill-rule="evenodd" clip-rule="evenodd" d="M4.06076 14.6475C4.76214 15.5374 5.65638 16.2566 6.67607 16.7507C7.69577 17.2448 8.81432 17.501 9.94743 17.5C11.0789 17.501 12.196 17.2455 13.2145 16.7528C14.2331 16.26 15.1267 15.5428 15.8283 14.655C13.9364 13.9806 11.9426 13.637 9.9341 13.6392C7.8741 13.6392 5.8966 13.995 4.06076 14.6475ZM9.94743 0.833332C4.88493 0.833332 0.780762 4.9375 0.780762 10C0.780762 15.0625 4.88493 19.1667 9.94743 19.1667C15.0108 19.1667 19.1141 15.0625 19.1141 10C19.1141 4.9375 15.0108 0.833332 9.94743 0.833332ZM9.94743 11.6667C10.8315 11.6667 11.6793 11.3155 12.3045 10.6904C12.9296 10.0652 13.2808 9.21739 13.2808 8.33333C13.2808 7.44928 12.9296 6.60143 12.3045 5.97631C11.6793 5.35119 10.8315 5 9.94743 5C9.06337 5 8.21553 5.35119 7.59041 5.97631C6.96528 6.60143 6.6141 7.44928 6.6141 8.33333C6.6141 9.21739 6.96528 10.0652 7.59041 10.6904C8.21553 11.3155 9.06337 11.6667 9.94743 11.6667Z"/>
</svg>
